<?xml version="1.0" standalone="no"?>
<!DOCTYPE svg PUBLIC "-//W3C//DTD SVG 20010904//EN"
 "http://www.w3.org/TR/2001/REC-SVG-20010904/DTD/svg10.dtd">
<svg version="1.0" xmlns="http://www.w3.org/2000/svg"
 width="1280.000000pt" height="1280.000000pt" viewBox="0 0 1280.000000 1280.000000"
 preserveAspectRatio="xMidYMid meet">
<metadata>
Created by potrace 1.15, written by Peter Selinger 2001-2017
</metadata>
<g transform="translate(0.000000,1280.000000) scale(0.100000,-0.100000)"
fill="#000000" stroke="none">
<path d="M6075 12789 c-483 -29 -901 -96 -1355 -217 -133 -35 -224 -62 -245
-72 -11 -5 -31 -12 -45 -15 -52 -13 -396 -138 -455 -165 -11 -5 -78 -35 -150
-66 -457 -199 -921 -474 -1332 -789 -395 -303 -855 -763 -1158 -1158 -310
-403 -594 -883 -789 -1332 -31 -71 -61 -139 -66 -150 -27 -59 -152 -403 -165
-455 -3 -14 -10 -34 -15 -45 -27 -58 -127 -446 -166 -640 -74 -368 -105 -633
-126 -1053 -26 -525 42 -1205 175 -1737 49 -196 102 -389 117 -420 5 -11 12
-31 15 -45 13 -52 138 -396 165 -455 5 -11 35 -78 66 -150 195 -449 479 -929
789 -1332 303 -395 763 -855 1158 -1158 411 -315 875 -590 1332 -789 72 -31
139 -61 150 -66 59 -27 403 -152 455 -165 14 -3 34 -10 45 -15 31 -15 224 -68
420 -117 532 -133 1212 -201 1738 -175 419 21 684 52 1052 126 194 39 582 139
640 166 11 5 31 12 45 15 52 13 396 138 455 165 11 5 79 35 150 66 457 199
921 474 1332 789 395 303 855 763 1158 1158 310 403 594 883 789 1332 31 72
61 139 66 150 27 59 152 403 165 455 3 14 10 34 15 45 15 31 68 224 117 420
133 532 201 1212 175 1737 -21 420 -52 685 -126 1053 -39 194 -139 582 -166
640 -5 11 -12 31 -15 45 -13 52 -138 396 -165 455 -5 11 -35 79 -66 150 -195
449 -479 929 -789 1332 -303 395 -763 855 -1158 1158 -411 315 -875 590 -1332
789 -71 31 -139 61 -150 66 -59 27 -403 152 -455 165 -14 3 -34 10 -45 15 -11
5 -54 19 -95 31 -544 154 -962 225 -1525 259 -163 10 -458 10 -630 -1z"/>
</g>
</svg>
